<?xml version="1.0" encoding="iso-8859-1"?>
<!-- Generator: Adobe Illustrator 19.0.0, SVG Export Plug-In . SVG Version: 6.00 Build 0)  -->
<svg version="1.1" id="Layer_1" xmlns="http://www.w3.org/2000/svg" xmlns:xlink="http://www.w3.org/1999/xlink" x="0px" y="0px"
	 viewBox="0 0 310 310" style="enable-background:new 0 0 310 310;" xml:space="preserve">
<g id="XMLID_516_">
	<path id="XMLID_517_" d="M305,107.613H202.389V5c0-2.761-2.238-5-5-5h-84.776c-2.762,0-5,2.239-5,5v102.613H5c-2.762,0-5,2.239-5,5
		v84.776c0,2.761,2.238,5,5,5h102.612V305c0,2.761,2.238,5,5,5h84.776c2.762,0,5-2.239,5-5V202.389H305c2.762,0,5-2.239,5-5v-84.776
		C310,109.852,307.762,107.613,305,107.613z"/>
</g>
<g>
</g>
<g>
</g>
<g>
</g>
<g>
</g>
<g>
</g>
<g>
</g>
<g>
</g>
<g>
</g>
<g>
</g>
<g>
</g>
<g>
</g>
<g>
</g>
<g>
</g>
<g>
</g>
<g>
</g>
</svg>
