<?xml version="1.0" encoding="iso-8859-1"?>
<!-- Generator: Adobe Illustrator 19.0.0, SVG Export Plug-In . SVG Version: 6.00 Build 0)  -->
<svg version="1.1" id="Layer_1" xmlns="http://www.w3.org/2000/svg" xmlns:xlink="http://www.w3.org/1999/xlink" x="0px" y="0px"
	 viewBox="0 0 315.001 315.001" style="enable-background:new 0 0 315.001 315.001;" xml:space="preserve">
<g id="XMLID_440_">
	<path id="XMLID_441_" d="M312.115,225.631c-4.978-6.107-19.688-6.768-25.781-6.768c-5.448,0-13.726,0.534-22.309,3.107
		c-5.574,1.748-10.528,4.182-15.08,7.392c-4.254,2.932-6.155,7.547-4.844,11.759c1.226,3.938,4.891,6.481,9.336,6.481
		c0.317,0,0.648-0.013,0.989-0.04c0.29-0.023,0.579-0.064,0.864-0.121c1.114-0.223,2.429-0.404,3.906-0.578
		c-31.41,11.719-65.365,17.898-98.508,17.898c-50.729,0-102.068-13.663-144.561-38.472c-0.06-0.034-0.12-0.069-0.181-0.102
		c-1.861-1.019-3.805-1.535-5.775-1.535c-4.401,0-8.169,2.603-9.601,6.631c-1.455,4.095-0.079,8.658,3.506,11.691
		c41.67,37.83,96.091,58.664,153.256,58.664c39.099,0,81.219-11.284,112.689-30.188c3.919-2.247,7.604-4.623,10.988-7.082
		c-1.186,3.255-2.647,7.035-4.44,11.426c-0.013,0.032-0.026,0.065-0.039,0.099c-1.306,3.331-1.012,6.77,0.806,9.435
		c1.714,2.513,4.621,4.014,7.774,4.014c2.518,0,5.023-0.908,7.247-2.625c0.087-0.068,0.173-0.138,0.258-0.209
		c15.821-13.377,22.053-36.628,22.381-48.992c0.002-0.066,0.003-0.133,0.003-0.199v-1.82c0-3.556-0.896-6.939-2.457-9.284
		C312.411,226.012,312.267,225.818,312.115,225.631z"/>
	<path id="XMLID_443_" d="M237.691,86.918c0.136-19.574,0.275-39.815-16.405-55.39c-18.468-16.856-45.733-18.167-53.649-18.167
		h-6.699c-0.145,0-0.289,0.005-0.434,0.014c-39.62,2.293-65.941,22.382-72.247,55.125c-1.02,4.373,0.168,7.604,1.358,9.557
		c1.811,2.97,4.924,5.104,8.765,6.012c0.257,0.061,0.516,0.107,0.777,0.141l31.218,3.971c0.756,0.097,1.522,0.076,2.271-0.058
		c5.977-1.073,10.305-5.556,11.604-12.005c2.425-10.402,11.581-13.017,17.081-13.631h1.84c4.775,0,9.443,2.037,11.669,5.082
		c2.661,4.168,2.67,10.562,2.635,16.789c-5.537,0.443-11.534,0.975-17.547,1.77c-13.026,1.686-26.68,4.006-38.33,9.504
		c-24.844,10.172-39.085,31.82-39.085,59.43c0,17.705,5.624,32.463,16.264,42.677c9.932,9.534,23.504,14.573,39.25,14.573
		c8.77,0,16.619-0.953,24.705-3c0.139-0.035,0.276-0.074,0.412-0.117c9.569-3.015,17.935-8.031,26.916-16.287
		c3.313,4.63,6.814,8.906,14.604,15.454c0.615,0.517,1.31,0.932,2.057,1.229c5.454,2.167,10.982,1.568,15.121-1.577
		c0.09-0.068,0.179-0.139,0.266-0.211c6.936-5.781,18.458-15.68,24.672-21.303c5.152-4.319,5.996-11.306,2.135-17.871
		c-0.169-0.287-0.357-0.564-0.563-0.826l-1.208-1.531c-5.501-6.951-9.476-11.973-9.476-23.486v-50.33
		C237.666,90.594,237.678,88.748,237.691,86.918z M172.36,153.996c-0.095,0.158-0.183,0.32-0.265,0.484
		c-2.642,5.279-7.108,9.065-12.316,10.467c-0.735,0.072-1.407,0.2-2.023,0.317c-0.422,0.081-1.059,0.202-1.29,0.202
		c-10.877,0-12.051-11.179-12.051-15.984c0-12.105,5.683-19.186,18.422-22.935c4.12-0.947,9.006-1.566,14.588-1.852l0.003,1.764
		C177.461,137.454,177.485,145.399,172.36,153.996z"/>
</g>
<g>
</g>
<g>
</g>
<g>
</g>
<g>
</g>
<g>
</g>
<g>
</g>
<g>
</g>
<g>
</g>
<g>
</g>
<g>
</g>
<g>
</g>
<g>
</g>
<g>
</g>
<g>
</g>
<g>
</g>
</svg>
