<?xml version="1.0" encoding="iso-8859-1"?>
<!-- Generator: Adobe Illustrator 19.0.0, SVG Export Plug-In . SVG Version: 6.00 Build 0)  -->
<svg version="1.1" id="Layer_1" xmlns="http://www.w3.org/2000/svg" xmlns:xlink="http://www.w3.org/1999/xlink" x="0px" y="0px"
	 viewBox="0 0 300.001 300.001" style="enable-background:new 0 0 300.001 300.001;" xml:space="preserve">
<g id="XMLID_450_">
	<path id="XMLID_482_" style="fill-rule:evenodd;clip-rule:evenodd;" d="M178.718,297.3c-29.381,4.507-58.925,4.507-86.455-8.908
		c-47.23-23.024-72.281-60.91-73.375-113.764c-0.474-23.412-0.088-46.825-0.088-70.237c0.016-26.591,0-53.182,0.016-79.771
		c0-9.951,4.344-17.442,13.235-21.889c8.864-4.436,17.576-3.359,25.519,2.443c6.367,4.687,8.98,11.296,8.966,19.177
		c-0.046,49.676-0.032,99.334-0.015,149.009c0,39.33,25.141,70.55,63.881,76.892c24.068,3.925,48.078,2.746,69.475-11.684
		c25.846-17.429,38.559-49.36,31.65-79.861c-6.924-30.517-32.146-54.032-63.03-58.089c-8.58-1.136-17.324-0.882-26.009-0.986
		c-13.653-0.18-24.232-9.504-25.023-22.323c-0.838-13.385,8.177-24.07,22.221-25.339c74.264-6.653,126.803,41.305,139.129,99.172
		C292.989,217.841,246.089,286.959,178.718,297.3L178.718,297.3z M178.718,297.3"/>
</g>
<g>
</g>
<g>
</g>
<g>
</g>
<g>
</g>
<g>
</g>
<g>
</g>
<g>
</g>
<g>
</g>
<g>
</g>
<g>
</g>
<g>
</g>
<g>
</g>
<g>
</g>
<g>
</g>
<g>
</g>
</svg>
