<?xml version="1.0" encoding="iso-8859-1"?>
<!-- Generator: Adobe Illustrator 19.0.0, SVG Export Plug-In . SVG Version: 6.00 Build 0)  -->
<svg version="1.1" id="Layer_1" xmlns="http://www.w3.org/2000/svg" xmlns:xlink="http://www.w3.org/1999/xlink" x="0px" y="0px"
	 viewBox="0 0 300 300" style="enable-background:new 0 0 300 300;" xml:space="preserve">
<g id="XMLID_92_">
	<path id="XMLID_93_" d="M293.852,0H6.146C2.752,0,0,2.752,0,6.147v287.706C0,297.248,2.752,300,6.146,300h287.706
		c3.396,0,6.148-2.752,6.148-6.147V6.147C300,2.752,297.248,0,293.852,0z M139.643,29.988c2.75,0,5,2.25,5,5v104.654
		c0,2.75-2.25,5-5,5H34.988c-2.75,0-5-2.25-5-5V34.988c0-2.75,2.25-5,5-5H139.643z M160.356,270.013c-2.75,0-5-2.25-5-5V160.357
		c0-2.75,2.25-5,5-5h104.655c2.75,0,5,2.25,5,5v104.655c0,2.75-2.25,5-5,5H160.356z M155.356,270.013"/>
</g>
<g>
</g>
<g>
</g>
<g>
</g>
<g>
</g>
<g>
</g>
<g>
</g>
<g>
</g>
<g>
</g>
<g>
</g>
<g>
</g>
<g>
</g>
<g>
</g>
<g>
</g>
<g>
</g>
<g>
</g>
</svg>
