<?xml version="1.0" encoding="iso-8859-1"?>
<!-- Generator: Adobe Illustrator 19.0.0, SVG Export Plug-In . SVG Version: 6.00 Build 0)  -->
<svg version="1.1" id="Layer_1" xmlns="http://www.w3.org/2000/svg" xmlns:xlink="http://www.w3.org/1999/xlink" x="0px" y="0px"
	 viewBox="0 0 300 300" style="enable-background:new 0 0 300 300;" xml:space="preserve">
<g id="XMLID_12_">
	<path id="XMLID_13_" d="M105.231,187.246v-49.584c-33.97,9.414-46.514,29.939-50.195,49.584H105.231z M145.526,83.178v26.858
		c1.476-0.016,2.988-0.033,4.474-0.033c41.425,0,78.929,10.27,106.075,26.875C283.2,153.49,300,176.453,300,201.795
		c0,5.115-0.685,10.135-2.001,15.027h-7.158H244.89h-90.391v-8.979v-20.598v-45.859c16.424,0.309,29.646,2.33,40.291,5.551v40.309
		h50.186c-4.988-26.617-26.266-54.85-94.959-54.85c-1.502,0-3.015,0.018-4.479,0.037v54.813v29.555h-40.307h-50.1H10.093H1.995
		C0.69,211.908,0,206.889,0,201.773c0-25.332,16.8-48.283,43.935-64.896c16.922-10.363,37.865-18.246,61.297-22.717V86.861
		C118.216,84.648,131.72,83.385,145.526,83.178z"/>
</g>
<g>
</g>
<g>
</g>
<g>
</g>
<g>
</g>
<g>
</g>
<g>
</g>
<g>
</g>
<g>
</g>
<g>
</g>
<g>
</g>
<g>
</g>
<g>
</g>
<g>
</g>
<g>
</g>
<g>
</g>
</svg>
