<?xml version="1.0" encoding="iso-8859-1"?>
<!-- Generator: Adobe Illustrator 19.0.0, SVG Export Plug-In . SVG Version: 6.00 Build 0)  -->
<svg version="1.1" id="Layer_1" xmlns="http://www.w3.org/2000/svg" xmlns:xlink="http://www.w3.org/1999/xlink" x="0px" y="0px"
	 viewBox="0 0 290.242 290.242" style="enable-background:new 0 0 290.242 290.242;" xml:space="preserve">
<g id="XMLID_238_">
	<path id="XMLID_242_" d="M83.323,226.321c-1.683,0-3.271-0.376-4.587-1.089L58.594,214.34c-0.304-0.165-0.508-0.214-0.615-0.229
		c-0.039,0.104-0.093,0.307-0.093,0.65v6.26c0,1.886,1.463,4.504,3.068,5.492l78.056,48.066v-90.879l-49.237,40.467
		C88.109,225.537,85.758,226.321,83.323,226.321z"/>
	<path id="XMLID_243_" d="M84.639,212.82L84.639,212.82c1.166,0,2.328-0.381,3.034-0.993l42.457-36.847
		c0.38-0.33,0.584-0.686,0.56-0.977c-0.025-0.293-0.286-0.609-0.716-0.871l-75.822-46.031c-0.577-0.351-1.36-0.544-2.205-0.544
		c-1.152,0-2.262,0.356-2.966,0.954l-44.2,37.518c-0.368,0.313-0.575,0.652-0.553,0.908c0.023,0.256,0.284,0.555,0.701,0.8
		l77.563,45.567C83.057,212.637,83.819,212.82,84.639,212.82z"/>
	<path id="XMLID_244_" d="M52.461,109.155c0.876,0,1.686-0.2,2.279-0.563l81.2-49.633c0.415-0.254,0.674-0.563,0.693-0.828
		c0.019-0.266-0.193-0.608-0.567-0.92L87.175,16.59c-0.699-0.58-1.796-0.928-2.935-0.928c-0.865,0-1.667,0.201-2.255,0.565
		L0.689,66.42c-0.413,0.254-0.67,0.563-0.688,0.824c-0.018,0.262,0.196,0.602,0.572,0.909l48.922,40.077
		C50.202,108.809,51.312,109.155,52.461,109.155z"/>
	<path id="XMLID_245_" d="M289.554,66.43l-81.283-50.184c-0.589-0.363-1.391-0.563-2.257-0.563c-1.137,0-2.233,0.347-2.934,0.927
		l-48.889,40.604c-0.375,0.311-0.587,0.654-0.567,0.918c0.02,0.265,0.278,0.574,0.693,0.828l81.199,49.633
		c0.595,0.363,1.404,0.563,2.28,0.563c1.149,0,2.258-0.347,2.965-0.925l48.908-40.068c0.375-0.307,0.589-0.646,0.571-0.908
		C290.224,66.992,289.967,66.684,289.554,66.43z"/>
	<path id="XMLID_307_" d="M285.477,165.031l-44.211-37.52c-0.704-0.598-1.812-0.954-2.965-0.954c-0.845,0-1.629,0.193-2.207,0.544
		l-75.816,46.031c-0.43,0.262-0.69,0.578-0.715,0.869c-0.025,0.291,0.179,0.647,0.559,0.976l42.48,36.85
		c0.706,0.611,1.868,0.992,3.034,0.992c0.819,0,1.583-0.184,2.149-0.516l77.543-45.566c0.417-0.246,0.679-0.545,0.7-0.8
		C286.052,165.683,285.845,165.344,285.477,165.031z"/>
	<path id="XMLID_308_" d="M231.649,214.34l-20.123,10.891c-1.317,0.713-2.904,1.09-4.588,1.09c-2.435,0-4.785-0.783-6.449-2.151
		l-49.242-40.468v90.357c0,0.192,0.017,0.344,0.038,0.456c0.103-0.039,0.239-0.103,0.407-0.207l77.596-47.793
		c1.606-0.989,3.069-3.607,3.069-5.493v-6.26c0-0.342-0.053-0.544-0.092-0.647C232.147,214.129,231.945,214.181,231.649,214.34z"/>
</g>
<g>
</g>
<g>
</g>
<g>
</g>
<g>
</g>
<g>
</g>
<g>
</g>
<g>
</g>
<g>
</g>
<g>
</g>
<g>
</g>
<g>
</g>
<g>
</g>
<g>
</g>
<g>
</g>
<g>
</g>
</svg>
