<?xml version="1.0" encoding="iso-8859-1"?>
<!-- Generator: Adobe Illustrator 19.0.0, SVG Export Plug-In . SVG Version: 6.00 Build 0)  -->
<svg version="1.1" id="Layer_1" xmlns="http://www.w3.org/2000/svg" xmlns:xlink="http://www.w3.org/1999/xlink" x="0px" y="0px"
	 viewBox="0 0 310 310" style="enable-background:new 0 0 310 310;" xml:space="preserve">
<path id="XMLID_486_" d="M309.263,121.251c-0.908-1.483-2.523-2.388-4.263-2.388h-16.141c-1.896,0-3.63,1.073-4.476,2.771
	l-21.048,42.256l-21.102-42.262c-0.847-1.694-2.579-2.766-4.474-2.766h-17.84c-1.137,0-2.219,0.386-3.087,1.066
	c-5.683-2.531-12.749-3.807-21.155-3.807c-26.565,0-34.983,11.555-37.648,19.033c-6.762-11.663-19.32-18.834-34.987-18.834
	c-10.161,0-17.402,2.471-22.376,5.318V94.883c0-2.762-2.238-5-5-5H80.38c-2.762,0-5,2.238-5,5v32.863
	c-6.819-6.951-17.235-11.623-31.595-11.623C15.549,116.123,0,130.71,0,157.197c0,25.763,15.746,39.951,44.338,39.951
	c15.65,0,25.121-4.711,30.837-10.107c-0.063,1.576-0.115,2.654-0.116,2.681c-0.066,1.367,0.43,2.702,1.373,3.692
	c0.943,0.992,2.253,1.553,3.621,1.553h14.965c2.286,0,4.244-1.543,4.825-3.688c5.067,3.159,12.604,6.074,23.167,6.074
	c13.352,0,24.663-5.309,31.923-14.473c4.982,9.184,15.801,14.66,30.29,14.66c11.524,0,19.534-3.059,24.841-6.39
	c0.534,2.204,2.521,3.815,4.858,3.815h14.082c0.008,0,0.016,0,0.016,0c2.766,0,5.004-2.238,5.004-5c0-0.307-0.027-0.607-0.08-0.898
	c-0.123-1.402-0.496-5.899-0.496-8.869v-20.302l15.873,29.783l-12.163,23.107c-0.815,1.55-0.761,3.414,0.144,4.913
	c0.906,1.5,2.53,2.416,4.281,2.416h16.925c1.88,0,3.602-1.055,4.455-2.73l46.493-91.254
	C310.245,124.583,310.172,122.734,309.263,121.251z M43.26,136.25c7.854,0,13.505,3.548,15.506,9.371H26.817
	C29.355,139.502,36.478,136.25,43.26,136.25z M58.313,169.36c-0.27,0.815-2.986,7.962-14.923,7.962
	c-8.63,0-15.128-4.578-17.199-11.605h36.842C60.813,165.717,58.937,167.23,58.313,169.36z M119.289,177.019
	c-12.842,0-18.59-10.17-18.59-20.248c0-10.002,5.717-20.096,18.486-20.096c11.065,0,18.496,8.02,18.496,19.957
	C137.682,168.445,129.947,177.019,119.289,177.019z M182.627,141.744c0.004-0.055,0.761-5.596,11.939-5.596
	c2.957,0,12.118,0.558,13.433,7.287h-13.433c-4.643,0-8.914,0.252-12.811,0.754C182.242,143.487,182.554,142.652,182.627,141.744z
	 M163.058,150.095c-0.177-1.276-0.403-2.527-0.68-3.749h9.133C168.306,147.342,165.487,148.592,163.058,150.095z M188.947,177.51
	c-4.186,0-11.206-0.933-11.206-7.178c0-1.622,0-4.072,7.232-5.613c5.675-1.21,13.755-1.389,23.164-1.416
	C207.942,166.799,205.951,177.51,188.947,177.51z"/>
<g>
</g>
<g>
</g>
<g>
</g>
<g>
</g>
<g>
</g>
<g>
</g>
<g>
</g>
<g>
</g>
<g>
</g>
<g>
</g>
<g>
</g>
<g>
</g>
<g>
</g>
<g>
</g>
<g>
</g>
</svg>
