<?xml version="1.0" encoding="iso-8859-1"?>
<!-- Generator: Adobe Illustrator 19.0.0, SVG Export Plug-In . SVG Version: 6.00 Build 0)  -->
<svg version="1.1" id="Layer_1" xmlns="http://www.w3.org/2000/svg" xmlns:xlink="http://www.w3.org/1999/xlink" x="0px" y="0px"
	 viewBox="0 0 291.146 291.146" style="enable-background:new 0 0 291.146 291.146;" xml:space="preserve">
<path id="XMLID_515_" d="M269.698,290.033l-64.215-150.006L145.55,0L81.706,149.22L21.45,290.032
	c-0.207,0.48-0.192,0.799-0.133,0.887c0.059,0.088,0.344,0.227,0.867,0.227h94.65c1.379,0,2.5-1.122,2.5-2.5v-52.834
	c0-2.018-1.393-5.054-2.92-6.369L99.64,214.989c-2.918-2.515-4.104-6.917-2.701-10.022c0.93-2.055,2.818-3.282,5.053-3.282
	c1.539,0,3.066,0.578,4.42,1.671l12.924,10.43v-39.04c0-4.135,3.363-7.5,7.5-7.5h27.17c4.135,0,7.5,3.365,7.5,7.5v21.351
	c0,0.494,0.117,0.731,0.158,0.775c0.109-0.021,0.344-0.041,0.723-0.227l16.541-8.144c1.059-0.521,2.229-0.796,3.387-0.796
	c2.822,0,5.281,1.539,6.418,4.018c1.625,3.539-0.021,7.914-3.672,9.753l-20.465,10.302c-1.617,0.814-3.09,3.204-3.09,5.015v13.811
	c0,0.486,0.113,0.724,0.152,0.768c0.086-0.03,0.318-0.051,0.699-0.241l36.566-18.307c1.064-0.533,2.246-0.815,3.414-0.815
	c2.809,0,5.252,1.54,6.379,4.02c1.607,3.542-0.043,7.922-3.682,9.763l-40.439,20.47c-1.617,0.819-3.09,3.215-3.09,5.028v37.358
	c0,1.378,1.121,2.5,2.5,2.5h104.959c0.522,0,0.809-0.14,0.865-0.227C269.888,290.832,269.903,290.514,269.698,290.033z"/>
<g>
</g>
<g>
</g>
<g>
</g>
<g>
</g>
<g>
</g>
<g>
</g>
<g>
</g>
<g>
</g>
<g>
</g>
<g>
</g>
<g>
</g>
<g>
</g>
<g>
</g>
<g>
</g>
<g>
</g>
</svg>
