<?xml version="1.0" encoding="iso-8859-1"?>
<!-- Generator: Adobe Illustrator 19.0.0, SVG Export Plug-In . SVG Version: 6.00 Build 0)  -->
<svg version="1.1" id="Layer_1" xmlns="http://www.w3.org/2000/svg" xmlns:xlink="http://www.w3.org/1999/xlink" x="0px" y="0px"
	 viewBox="0 0 299.997 299.997" style="enable-background:new 0 0 299.997 299.997;" xml:space="preserve">
<g id="XMLID_495_">
	<path id="XMLID_32_" d="M288.878,174.874c13.676-13.691,13.676-36.046,0-49.752l-0.549-0.553L167.911,245.06
		c-1.314,1.303-2.742,2.456-4.256,3.456c-2.348,1.551-4.914,2.714-7.611,3.48c-2.426,0.688-4.959,1.056-7.551,1.058l-2.494-0.013
		c-1.254-0.113-2.502-0.316-3.732-0.603c-2.32-0.54-4.582-1.394-6.725-2.549c-2.268-1.225-4.399-2.786-6.314-4.702
		c-0.037-0.038-0.076-0.081-0.113-0.122c-0.035-0.032-0.072-0.064-0.105-0.098l-79.236-79.381
		c-5.193-5.203-8.066-12.063-8.066-19.416c0-7.33,2.873-14.225,8.066-19.405l23.441-23.406c5.1-5.091,12.149-7.98,19.404-8.005
		c7.223,0,14.299,2.949,19.365,8.073l36.533,36.591l77.609-77.67l-51.67-51.669c-13.68-13.659-36.07-13.659-49.762-0.001
		L10.26,125.122c-13.68,13.67-13.682,36.061,0,49.752l114.457,114.443c13.668,13.658,36.059,13.658,49.738,0.001L288.878,174.874z"
		/>
	<path id="XMLID_3_" d="M113.444,130.308l-7.426-7.426c-0.002-0.001-0.002-0.004-0.006-0.007l-7.023-7.023
		c-3.85-3.85-10.07-3.874-13.955-0.082l-0.008-0.004L61.62,139.094c-3.867,3.851-3.885,9.933-0.021,13.785l62.037,61.964
		l18.061,18.037c3.887,3.884,10.244,3.882,14.133,0.001c0.004-0.003,0.006-0.006,0.008-0.009l17.619-17.639L297.118,91.435
		c3.797-3.809,3.848-10.525,0.096-14.39c-0.029-0.031-0.055-0.064-0.084-0.094l-11.623-11.908l-11.91-11.624
		c-3.359-3.354-8.967-3.759-12.891-1.26c-0.57,0.362-1.105,0.786-1.592,1.271L153.182,159.242l-5.443,5.444l-6.873-6.872
		l-27.43-27.498L113.444,130.308z"/>
</g>
<g>
</g>
<g>
</g>
<g>
</g>
<g>
</g>
<g>
</g>
<g>
</g>
<g>
</g>
<g>
</g>
<g>
</g>
<g>
</g>
<g>
</g>
<g>
</g>
<g>
</g>
<g>
</g>
<g>
</g>
</svg>
