<?xml version="1.0" encoding="iso-8859-1"?>
<!-- Generator: Adobe Illustrator 19.0.0, SVG Export Plug-In . SVG Version: 6.00 Build 0)  -->
<svg version="1.1" id="Layer_1" xmlns="http://www.w3.org/2000/svg" xmlns:xlink="http://www.w3.org/1999/xlink" x="0px" y="0px"
	 viewBox="0 0 300 300" style="enable-background:new 0 0 300 300;" xml:space="preserve">
<g id="XMLID_229_">
	<path id="XMLID_230_" d="M150,0C67.18,0,0,67.162,0,149.994C0,232.827,67.18,300,150,300c82.828,0,150-67.173,150-150.006
		C300,67.162,232.828,0,150,0z M100.366,63.123c-0.944-0.259-3.532-1.44-4.286-0.259l-0.012,2.892
		c0.203,1.754,0.41,3.498,0.619,5.253c2.525,20.947,3.487,43.054-3.016,63.394c-3.486,10.957-9.859,20.969-18.348,28.732
		c-7.02,6.434-17.066,12.947-27.033,12.465c-1.857-0.057-3.69-0.372-5.514-1.002c-10.682-3.588-11.305-15.131-11.355-24.604
		c-0.096-10.192,1.152-20.362,3.672-30.239c0.76-3.06,1.711-6.03,2.734-9.022C49.5,76.904,76.482,49.354,110.395,37.338
		c12.696-4.5,26.141-6.761,39.605-6.761c39.668,0,77.377,20.385,99.174,53.505c5.456,8.302,9.832,17.291,13.039,26.673h-0.045
		c1.029,2.981,1.984,5.94,2.772,9c2.504,9.888,3.736,20.059,3.668,30.251c-0.152,19.203-6.316,40.342-30.369,30.194
		c-11.391-4.792-20.879-14.558-27.938-24.423c-8.134-11.352-16.437-22.489-25.515-33.075c-8.561-9.922-17.641-19.417-27.539-28.034
		c-9.833-8.584-20.543-16.752-32.377-22.421C116.971,68.41,108.814,65.541,100.366,63.123z"/>
</g>
<g>
</g>
<g>
</g>
<g>
</g>
<g>
</g>
<g>
</g>
<g>
</g>
<g>
</g>
<g>
</g>
<g>
</g>
<g>
</g>
<g>
</g>
<g>
</g>
<g>
</g>
<g>
</g>
<g>
</g>
</svg>
