<?xml version="1.0" encoding="iso-8859-1"?>
<!-- Generator: Adobe Illustrator 19.0.0, SVG Export Plug-In . SVG Version: 6.00 Build 0)  -->
<svg version="1.1" id="Layer_1" xmlns="http://www.w3.org/2000/svg" xmlns:xlink="http://www.w3.org/1999/xlink" x="0px" y="0px"
	 viewBox="0 0 300 300" style="enable-background:new 0 0 300 300;" xml:space="preserve">
<g id="XMLID_839_">
	<path id="XMLID_840_" d="M120.108,102.235l55.018-79.714C185.522,7.514,198.95,0,215.417,0c13.429,0,25.048,4.772,34.87,14.292
		c9.817,9.538,14.73,20.943,14.73,34.228c0,9.822-2.6,18.484-7.798,25.999l-49.604,72.123l60.65,76.894
		c6.065,7.66,9.098,16.612,9.098,26.857c0,13.58-4.766,25.236-14.296,34.986c-9.532,9.75-21.085,14.622-34.659,14.622
		c-14.873,0-26.205-4.833-34.004-14.516l-74.297-92.703v51.118c0,14.588-2.527,25.921-7.58,34.01
		C103.285,292.636,89.856,300,72.238,300c-16.026,0-28.449-5.413-37.257-16.244c-8.231-9.967-12.345-23.179-12.345-39.64V54.58
		c0-15.587,4.187-28.441,12.562-38.548C44.006,5.346,56.133,0,71.588,0c14.728,0,27.002,5.346,36.824,16.032
		c5.486,5.926,8.95,11.913,10.396,17.977c0.865,3.752,1.299,10.753,1.299,21.011V102.235z"/>
</g>
<g>
</g>
<g>
</g>
<g>
</g>
<g>
</g>
<g>
</g>
<g>
</g>
<g>
</g>
<g>
</g>
<g>
</g>
<g>
</g>
<g>
</g>
<g>
</g>
<g>
</g>
<g>
</g>
<g>
</g>
</svg>
