<?xml version="1.0" encoding="iso-8859-1"?>
<!-- Generator: Adobe Illustrator 19.0.0, SVG Export Plug-In . SVG Version: 6.00 Build 0)  -->
<svg version="1.1" id="Layer_1" xmlns="http://www.w3.org/2000/svg" xmlns:xlink="http://www.w3.org/1999/xlink" x="0px" y="0px"
	 viewBox="0 0 330 330" style="enable-background:new 0 0 330 330;" xml:space="preserve">
<g id="XMLID_85_">
	<path id="XMLID_86_" d="M272.541,168.505c29.072,0,52.725-23.576,52.725-52.556s-23.652-52.556-52.725-52.556
		c-29.085,0-52.748,23.576-52.748,52.556S243.456,168.505,272.541,168.505z"/>
	<path id="XMLID_87_" d="M155.009,177.315c26.446,0,47.962-21.443,47.962-47.802c0-26.362-21.516-47.809-47.962-47.809
		c-26.449,0-47.967,21.446-47.967,47.809C107.042,155.872,128.56,177.315,155.009,177.315z"/>
	<path id="XMLID_88_" d="M47.494,185.239c24.079,0,43.669-19.518,43.669-43.508c0-23.998-19.59-43.521-43.669-43.521
		c-24.078,0-43.668,19.523-43.668,43.521C3.826,165.722,23.416,185.239,47.494,185.239z"/>
	<path id="XMLID_89_" d="M47.495,194.034C19.085,194.034,0,219.244,0,242.79v14.965c0,4.881,3.976,8.852,8.861,8.852h77.256
		c4.891,0,8.869-3.971,8.869-8.852V242.79C94.986,219.244,75.903,194.034,47.495,194.034z"/>
	<path id="XMLID_90_" d="M155.007,187.073c-31.237,0-52.221,27.727-52.221,53.621v16.629c0,5.119,4.168,9.283,9.292,9.283h85.846
		c5.129,0,9.301-4.164,9.301-9.283v-16.629C207.225,214.8,186.242,187.073,155.007,187.073z"/>
	<path id="XMLID_91_" d="M272.535,179.351c-34.374,0-57.465,30.52-57.465,59.023v18.475c0,5.381,4.383,9.758,9.77,9.758h95.379
		c5.394,0,9.781-4.377,9.781-9.758v-18.475C330,209.87,306.909,179.351,272.535,179.351z"/>
</g>
<g>
</g>
<g>
</g>
<g>
</g>
<g>
</g>
<g>
</g>
<g>
</g>
<g>
</g>
<g>
</g>
<g>
</g>
<g>
</g>
<g>
</g>
<g>
</g>
<g>
</g>
<g>
</g>
<g>
</g>
</svg>
