<?xml version="1.0" encoding="iso-8859-1"?>
<!-- Generator: Adobe Illustrator 19.0.0, SVG Export Plug-In . SVG Version: 6.00 Build 0)  -->
<svg version="1.1" id="Layer_1" xmlns="http://www.w3.org/2000/svg" xmlns:xlink="http://www.w3.org/1999/xlink" x="0px" y="0px"
	 viewBox="0 0 300 300" style="enable-background:new 0 0 300 300;" xml:space="preserve">
<g id="XMLID_519_">
	<path id="XMLID_521_" style="fill-rule:evenodd;clip-rule:evenodd;" d="M150.206,300c-18.121,0-35.033-3.549-50.634-10.708
		c-15.586-7.177-29.596-17.797-42.015-31.732c-13.569-14.954-23.617-31.159-30.01-48.615c-6.395-17.413-9.517-37.021-9.517-58.751
		c0-21.73,3.122-41.323,9.517-58.738c6.392-17.442,16.44-33.662,30.01-48.615c12.552-14.054,26.591-24.779,42.206-32.026
		C115.379,3.596,132.217,0,150.206,0c17.986,0,34.84,3.596,50.428,10.814c15.601,7.248,29.671,17.973,42.19,32.026
		c13.451,14.837,23.411,30.954,29.73,48.321c6.334,17.34,9.415,37.051,9.415,59.032c0,21.979-3.081,41.704-9.415,59.029
		c-6.318,17.384-16.278,33.488-29.715,48.337c-12.434,13.935-26.4,24.556-42.016,31.732C185.208,296.451,168.325,300,150.206,300
		L150.206,300z M150.206,280.628c20.357,0,33.324-7.778,40.631-22.863c7.837-16.104,12.271-51.386,12.271-107.572
		c0-56.158-4.435-91.456-12.271-107.587c-7.307-15.056-20.273-22.835-40.631-22.835c-20.478,0-33.56,7.853-40.955,23.057
		C101.34,59.077,96.906,94.3,96.906,150.193c0,55.909,4.434,91.145,12.345,107.396C116.646,272.774,129.728,280.628,150.206,280.628
		L150.206,280.628z"/>
</g>
<g>
</g>
<g>
</g>
<g>
</g>
<g>
</g>
<g>
</g>
<g>
</g>
<g>
</g>
<g>
</g>
<g>
</g>
<g>
</g>
<g>
</g>
<g>
</g>
<g>
</g>
<g>
</g>
<g>
</g>
</svg>
