<?xml version="1.0" encoding="iso-8859-1"?>
<!-- Generator: Adobe Illustrator 19.0.0, SVG Export Plug-In . SVG Version: 6.00 Build 0)  -->
<svg version="1.1" id="Layer_1" xmlns="http://www.w3.org/2000/svg" xmlns:xlink="http://www.w3.org/1999/xlink" x="0px" y="0px"
	 viewBox="0 0 299.999 299.999" style="enable-background:new 0 0 299.999 299.999;" xml:space="preserve">
<g id="XMLID_309_">
	<path id="XMLID_311_" d="M277.937,52.322c12.185,22.346,8.164,48.697,3.365,64.27c-25.969,84.827-143.146,80.213-160.098,80.213
		c-16.932,0-20.875,15.789-20.875,15.789l-12.66,55.232c-3.451,19.387-21.033,18.421-21.033,18.421s-22.854,0-38.141,0
		c-0.959,0-1.854-0.066-2.676-0.185c-0.189,3.55,0.316,13.928,13.008,13.928c15.275,0,38.129,0,38.129,0s17.582,0.986,21.045-18.4
		l12.646-55.23c0,0,3.957-15.79,20.889-15.79c16.924,0,134.129,4.613,160.111-80.217C297.444,111.393,302.157,76.554,277.937,52.322
		z"/>
	<path id="XMLID_312_" d="M75.892,255.787l12.658-55.234c0,0,3.932-15.762,20.889-15.762c16.918,0,134.115,4.589,160.086-80.22
		C279.028,73.564,285.626,0.005,167.292,0.005H81.819c0,0-17.766-0.825-22.15,18.064L3.821,259.098c0,0-2.398,15.104,12.883,15.104
		c15.295,0,38.154,0,38.154,0S72.44,275.196,75.892,255.787z M108.105,115.581l11.35-48.978c0,0,3.615-13.319,15.295-15.291
		c11.668-1.979,31.543,0.352,36.656,1.317c33.193,6.234,26.133,37.64,26.133,37.64c-6.572,48.479-82.033,41.752-82.033,41.752
		C103.675,127.743,108.105,115.581,108.105,115.581z"/>
</g>
<g>
</g>
<g>
</g>
<g>
</g>
<g>
</g>
<g>
</g>
<g>
</g>
<g>
</g>
<g>
</g>
<g>
</g>
<g>
</g>
<g>
</g>
<g>
</g>
<g>
</g>
<g>
</g>
<g>
</g>
</svg>
