<?xml version="1.0" encoding="iso-8859-1"?>
<!-- Generator: Adobe Illustrator 19.0.0, SVG Export Plug-In . SVG Version: 6.00 Build 0)  -->
<svg version="1.1" id="Layer_1" xmlns="http://www.w3.org/2000/svg" xmlns:xlink="http://www.w3.org/1999/xlink" x="0px" y="0px"
	 viewBox="0 0 300 300" style="enable-background:new 0 0 300 300;" xml:space="preserve">
<g id="XMLID_2_">
	<g>
		<g id="XMLID_62_">
			<path id="XMLID_63_" d="M211.84,13.753c-19.57-8.888-40.369-13.439-61.848-13.439c-17.884,0-35.469,3.44-52.383,9.78
				c3.967,3.598,109.108,99.028,114.23,103.684C211.84,106.892,211.84,15.871,211.84,13.753z"/>
		</g>
		<g id="XMLID_60_">
			<path id="XMLID_61_" d="M72.783,278.425c0-5.865,0-122.061,0-128.978c-5.014,4.56-60.249,54.765-61.977,56.328
				C22.83,235.926,44.773,261.495,72.783,278.425z"/>
		</g>
		<g id="XMLID_58_">
			<path id="XMLID_59_" d="M0,150.314c0,12.88,1.944,25.977,5.447,38.966C9.512,185.581,135.807,70.84,138.406,68.473
				c-2.537-2.304-55.054-49.974-56.762-51.529C31.279,42.795,0,93.756,0,150.314z"/>
		</g>
		<g id="XMLID_56_">
			<path id="XMLID_57_" d="M88.542,215.504c0,3.115,0,69.425,0,71.565c15.242,6.846,31.191,11.091,47.606,12.617h27.545
				c51.81-4.828,98.059-36.768,121.044-84.183C279.32,215.504,91.766,215.504,88.542,215.504z"/>
		</g>
		<g id="XMLID_54_">
			<path id="XMLID_55_" d="M227.655,22.362c0,5.95,0,174.139,0,177.337c3.085,0,61.45,0,63.828,0
				c5.592-15.98,8.517-32.585,8.517-49.386C300,98.187,272.284,49.523,227.655,22.362z"/>
		</g>
	</g>
</g>
<g>
</g>
<g>
</g>
<g>
</g>
<g>
</g>
<g>
</g>
<g>
</g>
<g>
</g>
<g>
</g>
<g>
</g>
<g>
</g>
<g>
</g>
<g>
</g>
<g>
</g>
<g>
</g>
<g>
</g>
</svg>
