<?xml version="1.0" encoding="iso-8859-1"?>
<!-- Generator: Adobe Illustrator 19.0.0, SVG Export Plug-In . SVG Version: 6.00 Build 0)  -->
<svg version="1.1" id="Layer_1" xmlns="http://www.w3.org/2000/svg" xmlns:xlink="http://www.w3.org/1999/xlink" x="0px" y="0px"
	 viewBox="0 0 310 310" style="enable-background:new 0 0 310 310;" xml:space="preserve">
<g id="XMLID_500_">
	<path id="XMLID_501_" d="M165.9,125.903c0,2.761,2.238,5,5,5h51.15c2.762,0,5-2.239,5-5v-19.404
		c0-39.761-32.321-72.107-72.049-72.107c-39.732,0-72.055,32.347-72.055,72.107v95.274c0,6.009-4.887,10.898-10.893,10.898
		c-6.01,0-10.898-4.89-10.898-10.898v-42.338c0-2.761-2.238-5-5-5H5c-2.762,0-5,2.239-5,5v44.066
		c0,39.761,32.323,72.107,72.055,72.107c39.728,0,72.049-32.347,72.049-72.107v-97.002c0-6.005,4.889-10.891,10.898-10.891
		c6.01,0,10.898,4.886,10.898,10.891V125.903z"/>
	<path id="XMLID_502_" d="M305,155.3h-51.152c-2.762,0-5,2.239-5,5v43.201c0,6.009-4.889,10.898-10.898,10.898
		c-6.01,0-10.898-4.89-10.898-10.898V160.3c0-2.761-2.238-5-5-5H170.9c-2.762,0-5,2.239-5,5v43.201
		c0,39.761,32.321,72.107,72.049,72.107c39.729,0,72.051-32.347,72.051-72.107V160.3C310,157.539,307.762,155.3,305,155.3z"/>
</g>
<g>
</g>
<g>
</g>
<g>
</g>
<g>
</g>
<g>
</g>
<g>
</g>
<g>
</g>
<g>
</g>
<g>
</g>
<g>
</g>
<g>
</g>
<g>
</g>
<g>
</g>
<g>
</g>
<g>
</g>
</svg>
