<?xml version="1.0" encoding="iso-8859-1"?>
<!-- Generator: Adobe Illustrator 19.0.0, SVG Export Plug-In . SVG Version: 6.00 Build 0)  -->
<svg version="1.1" id="Layer_1" xmlns="http://www.w3.org/2000/svg" xmlns:xlink="http://www.w3.org/1999/xlink" x="0px" y="0px"
	 viewBox="0 0 310 310" style="enable-background:new 0 0 310 310;" xml:space="preserve">
<g id="XMLID_22_">
	<path id="XMLID_27_" d="M154.994,19.184C69.529,19.184,0,74.786,0,143.13c0,34.363,17.871,67.186,49.182,90.58l-17.525,50.467
		c-0.639,1.838-0.152,3.88,1.246,5.232c0.949,0.92,2.203,1.407,3.479,1.407c0.601,0,1.211-0.108,1.793-0.333l73.607-28.31
		c14.037,3.246,28.566,4.891,43.213,4.891C240.465,267.064,310,211.468,310,143.13C310,74.786,240.465,19.184,154.994,19.184z
		 M215.912,178.819c-16.197,10.172-37.832,15.773-60.918,15.773c-23.086,0-44.719-5.602-60.916-15.773
		c-15.473-9.717-23.994-22.393-23.994-35.689c0-13.303,8.521-25.98,23.994-35.7c16.195-10.173,37.83-15.775,60.916-15.775
		c23.088,0,44.721,5.603,60.918,15.775c15.473,9.72,23.994,22.397,23.994,35.7C239.906,156.427,231.385,169.102,215.912,178.819z"/>
</g>
<g>
</g>
<g>
</g>
<g>
</g>
<g>
</g>
<g>
</g>
<g>
</g>
<g>
</g>
<g>
</g>
<g>
</g>
<g>
</g>
<g>
</g>
<g>
</g>
<g>
</g>
<g>
</g>
<g>
</g>
</svg>
