<?xml version="1.0" encoding="iso-8859-1"?>
<!-- Generator: Adobe Illustrator 19.0.0, SVG Export Plug-In . SVG Version: 6.00 Build 0)  -->
<svg version="1.1" id="Layer_1" xmlns="http://www.w3.org/2000/svg" xmlns:xlink="http://www.w3.org/1999/xlink" x="0px" y="0px"
	 viewBox="0 0 309.979 309.979" style="enable-background:new 0 0 309.979 309.979;" xml:space="preserve">
<g id="XMLID_523_">
	<path id="XMLID_524_" d="M263.704,233.631c-1.639-0.584-3.461-0.272-4.813,0.817c-7.732,6.229-17.768,9.389-29.828,9.389
		c-7.273,0-15.176-1.147-23.49-3.412c-18.14-6.102-47.567-25.189-47.941-25.432c-15.338-9.584-29.723-14.772-42.809-15.449
		c0.03-0.135,0.064-0.254,0.104-0.358c0.279-0.752,134.762-155.235,135.158-158.576c0.975-8.492,1.952-16.984,2.945-25.468
		c0.433-3.742-0.86-6.081-2.021-7.385c-1.648-1.85-4.03-2.828-6.889-2.828c-0.674,0-1.271,0.055-1.73,0.119
		c-0.253,0.012-0.507,0.043-0.759,0.095c-27.668,5.623-54.101,7.908-78.524,6.79c-14.328-0.66-29.414-1.996-42.695-7.251
		c-0.518-0.24-3.076-1.533-5.76-3.009c-0.039-0.021-0.076-0.042-0.116-0.063c-4.885-2.521-9.984-2.04-13.68,1.146
		c-0.231,0.199-0.443,0.42-0.636,0.658c-0.396,0.495-0.803,0.983-1.208,1.473c-0.75,0.903-1.525,1.836-2.315,2.892
		c-6.039,8.275-14.229,20.937-15.647,35.281c-0.423,4.083-0.56,9.777,1.131,13.954c0.019,0.05,0.037,0.099,0.057,0.148
		c0.106,0.27,0.427,1.005,1.084,1.996c0.021,0.031,0.042,0.063,0.063,0.094c0.074,0.119,0.187,0.289,0.336,0.482
		c3.662,4.982,13.849,13.217,41.126,13.217c8.545,0,18.208-0.819,28.847-2.443c-36.028,42.499-72.045,85.009-108.046,127.523
		c-0.081,0.083-0.161,0.17-0.237,0.26c-3.059,3.606-3.625,8.613-3.707,9.58c-0.014,0.142-0.019,0.283-0.019,0.426v24.54
		c0,0.281-0.015,1.936-0.03,3.759l-0.002,0.238c-0.003,0.32,0.025,0.642,0.084,0.957c1.385,7.446,5.966,8.867,7.871,9.133
		c0.229,0.031,0.46,0.048,0.69,0.048h9.212c23.424,0,41.529,0.785,61.288,10.954c8.528,4.381,16.204,10.183,24.329,16.324
		c6.653,5.029,13.533,10.229,20.926,14.575c15.13,8.91,32.849,18.604,51.672,20.834c1.795,0.212,3.586,0.319,5.328,0.319
		c0.002,0,0.002,0,0.002,0c12.302,0,23.104-5.306,31.233-15.343c11.571-14.285,16.767-37.861,12.632-57.332
		C266.559,235.604,265.341,234.213,263.704,233.631z"/>
</g>
<g>
</g>
<g>
</g>
<g>
</g>
<g>
</g>
<g>
</g>
<g>
</g>
<g>
</g>
<g>
</g>
<g>
</g>
<g>
</g>
<g>
</g>
<g>
</g>
<g>
</g>
<g>
</g>
<g>
</g>
</svg>
